<svg viewBox="0 0 440 440" xmlns="http://www.w3.org/2000/svg">
  <path d="M220,395.3759273320723C252.6616242456447,389.79839221459093,282.127971741768,377.59443722425686,311.79058574748876,362.82893937629916C345.05255018562735,346.2717517921078,383.7369266302102,335.22175587752326,403.7424354115678,303.9123586079953C424.67951642407934,271.1450146604185,427.45286440760054,229.4562567402001,421.5709065029081,191.01847894399162C415.7200683160294,152.7840641806016,397.72612308366547,117.10885666590946,370.8936228088437,89.24993154684455C344.8767870672962,62.237872613264706,309.8952832794429,46.905150014600636,273.61528583104996,37.403105235793554C238.13833352903623,28.11138491886532,201.0970019454101,25.453816028303073,165.83893026708864,35.54433596603277C130.43070440316944,45.67782858296431,101.67111170069703,68.97653697781527,74.90292228976224,94.27266646649481C45.60438089727492,121.95999658494657,11.03892453797229,149.2685239728912,3.576949047682787,188.88306295288862C-3.9640468690225554,228.9171098455747,17.478235207027545,267.71772962279863,35.3348582421218,304.3337444770137C52.799988436953385,340.14698113368246,69.84086723898537,380.4240552868051,105.57858890542732,398.0431909818643C140.5042033389721,415.2619478371949,181.6161493801477,401.9306312000201,220,395.3759273320723" fill="#9EF0F0" />
</svg>